<svg width="24" height="30" viewBox="0 0 24 30" fill="none" xmlns="http://www.w3.org/2000/svg">
<path fill-rule="evenodd" clip-rule="evenodd" d="M2.91667 0C2.14312 0 1.40125 0.307291 0.854272 0.854272C0.307291 1.40125 0 2.14312 0 2.91667V24.7917C0 25.952 0.460936 27.0648 1.28141 27.8853C2.10188 28.7057 3.21468 29.1667 4.375 29.1667H21.875C22.2618 29.1667 22.6327 29.013 22.9062 28.7395C23.1797 28.466 23.3333 28.0951 23.3333 27.7083C23.3333 27.3216 23.1797 26.9506 22.9062 26.6771C22.6327 26.4036 22.2618 26.25 21.875 26.25H18.9583V23.3333H21.875C22.2618 23.3333 22.6327 23.1797 22.9062 22.9062C23.1797 22.6327 23.3333 22.2618 23.3333 21.875V2.91667C23.3333 2.14312 23.026 1.40125 22.4791 0.854272C21.9321 0.307291 21.1902 0 20.4167 0H8.75V23.3333H16.0417V26.25H4.375C3.98823 26.25 3.61729 26.0964 3.3438 25.8229C3.07031 25.5494 2.91667 25.1784 2.91667 24.7917C2.91667 24.4049 3.07031 24.034 3.3438 23.7605C3.61729 23.487 3.98823 23.3333 4.375 23.3333H5.83333V0H2.91667Z" fill="#AAD23F"/>
</svg>
